<!-- Generated by IcoMoon.io -->
<svg version="1.1" xmlns="http://www.w3.org/2000/svg" width="16" height="16" viewBox="0 0 16 16">
<title>earth-globe_icon-icons.com_73587</title>
<path fill="#91b54d" d="M14.927 3.984c-0.715-1.226-1.686-2.196-2.911-2.911s-2.564-1.073-4.016-1.073c-1.451 0-2.79 0.358-4.016 1.073s-2.196 1.686-2.912 2.911c-0.715 1.226-1.073 2.564-1.073 4.016s0.358 2.79 1.073 4.016c0.715 1.225 1.686 2.196 2.911 2.911s2.564 1.073 4.016 1.073 2.79-0.358 4.016-1.073c1.226-0.715 2.196-1.686 2.911-2.911s1.073-2.564 1.073-4.016c0-1.451-0.358-2.79-1.073-4.016zM9.001 12.209c-0.070-0.083-0.094-0.153-0.073-0.209-0.007 0.035-0.031 0.066-0.073 0.094-0.035-0.042-0.097-0.094-0.188-0.156s-0.153-0.115-0.188-0.157c-0.014-0.021-0.033-0.050-0.057-0.088s-0.056-0.089-0.094-0.151c-0.038-0.062-0.066-0.116-0.083-0.162s-0.019-0.071-0.005-0.078c-0.132 0.056-0.323 0.017-0.573-0.115-0.049-0.028-0.122-0.101-0.219-0.219s-0.198-0.17-0.302-0.156c-0.035 0.007-0.082 0.019-0.141 0.036s-0.109 0.026-0.151 0.026-0.097-0.014-0.167-0.042c-0.055-0.021-0.13-0.061-0.224-0.12s-0.158-0.096-0.193-0.109c-0.090-0.049-0.135-0.073-0.135-0.073l-0.167-0.083c-0.042-0.021-0.085-0.054-0.13-0.099s-0.075-0.092-0.088-0.141c-0.014-0.042-0.031-0.125-0.052-0.25s-0.049-0.215-0.083-0.271c-0.042-0.069-0.101-0.139-0.177-0.208s-0.146-0.104-0.208-0.104c0.056 0 0.056-0.047 0-0.141s-0.104-0.162-0.146-0.203c-0.014-0.014-0.056-0.059-0.125-0.136s-0.128-0.142-0.177-0.198c-0.049-0.056-0.090-0.12-0.125-0.193s-0.042-0.134-0.021-0.182c0.007-0.007 0-0.017-0.021-0.031s-0.047-0.028-0.078-0.042c-0.031-0.014-0.061-0.026-0.088-0.036s-0.049-0.015-0.063-0.015c0.014 0.028 0.030 0.078 0.047 0.151s0.036 0.127 0.057 0.162c0.014 0.028 0.073 0.129 0.177 0.302 0.181 0.292 0.264 0.507 0.25 0.646-0.042 0.014-0.070 0.007-0.083-0.021s-0.024-0.066-0.031-0.115c-0.007-0.048-0.014-0.083-0.021-0.104-0.021-0.042-0.075-0.087-0.162-0.136s-0.141-0.097-0.161-0.146c0.007 0 0.016-0.003 0.026-0.010s0.019-0.010 0.026-0.010c0.007-0.062-0.029-0.142-0.109-0.24s-0.113-0.167-0.099-0.208c-0.056-0.042-0.104-0.123-0.146-0.245s-0.076-0.2-0.104-0.235c-0.028-0.042-0.062-0.078-0.104-0.109s-0.094-0.066-0.156-0.104c-0.063-0.038-0.104-0.064-0.125-0.078-0.014-0.007-0.042-0.038-0.083-0.094-0.229-0.278-0.299-0.427-0.208-0.448-0.090 0.021-0.165-0.047-0.224-0.203s-0.078-0.276-0.057-0.359l-0.021-0.010c0.007-0.028 0.010-0.109 0.010-0.245s0.009-0.259 0.026-0.37c0.017-0.111 0.050-0.167 0.099-0.167-0.049 0.007-0.085-0.037-0.109-0.13s-0.026-0.158-0.005-0.193c0.007-0.021 0.038-0.007 0.094 0.042s0.087 0.080 0.094 0.094c0.090-0.049 0.125-0.111 0.104-0.188-0.014-0.028-0.087-0.101-0.219-0.219-0.299-0.194-0.452-0.288-0.458-0.281 0.042-0.076 0.031-0.142-0.031-0.198-0.069 0.042-0.109 0.052-0.12 0.031s-0.019-0.059-0.026-0.115c-0.007-0.056-0.024-0.087-0.052-0.094-0.035-0.007-0.076-0.035-0.125-0.083 0.618-0.986 1.434-1.757 2.448-2.313 0.042-0.007 0.118-0.010 0.229-0.010 0.056 0.007 0.108 0.024 0.156 0.052s0.099 0.066 0.151 0.115c0.052 0.048 0.092 0.083 0.12 0.104 0.014-0.042-0.003-0.104-0.052-0.188 0.014-0.042 0.090-0.083 0.229-0.125 0.16-0.021 0.264-0.017 0.312 0.010-0.042-0.063-0.111-0.149-0.208-0.26l-0.052 0.052c-0.056-0.049-0.201-0.024-0.438 0.073-0.014 0.007-0.049 0.026-0.104 0.057s-0.101 0.054-0.135 0.068c-0.042 0.014-0.083 0.017-0.125 0.010 0.333-0.18 0.66-0.323 0.979-0.427 0.021 0.014 0.055 0.043 0.104 0.088s0.087 0.078 0.115 0.099c-0.021-0.014-0.035-0.007-0.042 0.021-0.028 0.083-0.028 0.153 0 0.208 0.035 0.049 0.082 0.076 0.141 0.083s0.13 0.003 0.214-0.010c0.083-0.014 0.139-0.021 0.167-0.021l0.104 0.010c0.222 0.021 0.309 0 0.26-0.063 0.021 0.028 0.045 0.085 0.073 0.172s0.059 0.148 0.094 0.182c0.035-0.028 0.042-0.076 0.021-0.146s-0.021-0.118 0-0.146c0.007-0.014 0.028-0.028 0.063-0.042s0.075-0.029 0.12-0.047c0.045-0.017 0.075-0.030 0.089-0.036 0.042-0.028 0.014-0.076-0.083-0.146-0.014-0.007-0.043-0.017-0.088-0.031s-0.085-0.028-0.12-0.042c-0.035-0.014-0.071-0.033-0.109-0.057s-0.056-0.052-0.052-0.083c0.003-0.031 0.023-0.071 0.057-0.12 0.042-0.035 0.109-0.049 0.203-0.042s0.165 0.024 0.214 0.052c0.188 0.104 0.215 0.198 0.083 0.281 0.070 0.007 0.153 0.035 0.25 0.083s0.135 0.101 0.115 0.156c0.056-0.104 0.111-0.156 0.167-0.156 0.035 0.007 0.068 0.054 0.099 0.141s0.050 0.134 0.057 0.141c0.056 0.076 0.111 0.094 0.167 0.052s0.113-0.102 0.172-0.182c0.059-0.080 0.092-0.116 0.099-0.109-0.069-0.028-0.077-0.056-0.021-0.083 0.104-0.063 0.198-0.080 0.281-0.052 0.021 0.014 0.049 0.045 0.083 0.094 0.062 0.125 0.052 0.184-0.031 0.177 0.062 0.056 0.088 0.125 0.078 0.208s-0.065 0.122-0.162 0.115c-0.035 0-0.085-0.017-0.151-0.052s-0.116-0.054-0.151-0.057c-0.035-0.004-0.083 0.016-0.146 0.057-0.028 0.035-0.064 0.094-0.109 0.177s-0.085 0.142-0.12 0.177c-0.104 0.104-0.278 0.142-0.521 0.115 0.021 0 0.019 0.021-0.005 0.063s-0.057 0.089-0.099 0.141c-0.042 0.052-0.066 0.082-0.073 0.089-0.063 0.069-0.104 0.149-0.125 0.24 0 0.014-0.003 0.061-0.011 0.141s-0.021 0.141-0.042 0.182c0.083-0.021 0.149 0.021 0.198 0.125 0.042 0.097 0.042 0.149 0 0.156 0.229-0.035 0.431-0.021 0.604 0.042 0.25 0.090 0.393 0.181 0.427 0.271 0.041-0.063 0.142-0.066 0.302-0.011 0.063 0.035 0.118 0.139 0.167 0.312 0.028 0.104 0.075 0.194 0.141 0.271s0.137 0.097 0.214 0.063l0.031-0.021c0.028-0.014 0.050-0.026 0.068-0.036s0.036-0.024 0.057-0.042c0.021-0.017 0.033-0.033 0.036-0.047s-0.002-0.028-0.015-0.042c-0.049-0.042-0.085-0.099-0.109-0.172s-0.019-0.137 0.016-0.193c0.021-0.028 0.076-0.069 0.167-0.125s0.146-0.111 0.167-0.167c0.028-0.090-0.007-0.165-0.104-0.224s-0.146-0.113-0.146-0.161c0-0.035 0.023-0.076 0.068-0.125s0.064-0.094 0.057-0.135c0-0.021-0.012-0.064-0.036-0.13s-0.038-0.115-0.042-0.146c-0.004-0.031 0.012-0.068 0.047-0.109 0.048-0.028 0.163-0.026 0.344 0.005s0.299 0.064 0.354 0.099c0.021 0.014 0.066 0.035 0.135 0.063s0.13 0.057 0.182 0.088c0.052 0.031 0.081 0.061 0.088 0.088h-0.052c0.049 0.042 0.078 0.090 0.088 0.146s-0.015 0.097-0.078 0.125c0.041-0.007 0.097 0.003 0.167 0.031 0.111 0.042 0.115 0.080 0.010 0.115 0.021-0.007 0.050-0.014 0.088-0.021s0.068-0.017 0.089-0.031c0.014-0.007 0.031-0.019 0.052-0.036s0.036-0.028 0.047-0.031c0.010-0.003 0.026-0.007 0.047-0.010s0.041 0.002 0.062 0.016c0.007 0 0.023-0.017 0.047-0.052s0.050-0.069 0.078-0.104c0.028-0.035 0.052-0.052 0.073-0.052s0.040 0.009 0.057 0.026c0.018 0.017 0.031 0.036 0.042 0.057s0.021 0.043 0.031 0.068c0.010 0.024 0.019 0.044 0.026 0.057 0.014 0.035 0.047 0.071 0.099 0.109s0.085 0.075 0.099 0.109c0.007 0.021 0.021 0.073 0.042 0.156s0.049 0.141 0.083 0.172c0.035 0.031 0.087 0.057 0.156 0.078 0.014 0.007 0.045 0.003 0.094-0.010s0.089-0.017 0.12-0.011c0.031 0.007 0.047 0.035 0.047 0.083 0.042-0.042 0.062-0.070 0.062-0.083 0.007 0.090 0.029 0.163 0.068 0.219s0.099 0.080 0.182 0.073l-0.021 0.229c-0.021 0.035-0.073 0.061-0.156 0.078s-0.135 0.033-0.156 0.047c-0.021 0.007-0.071 0.049-0.151 0.125s-0.113 0.122-0.099 0.135c-0.118-0.132-0.295-0.17-0.531-0.115-0.264 0.042-0.444 0.083-0.542 0.125-0.111 0.056-0.188 0.108-0.229 0.156-0.007 0.007-0.019 0.031-0.036 0.073s-0.035 0.080-0.052 0.115c-0.018 0.035-0.033 0.052-0.047 0.052 0.042-0.007 0.089-0.040 0.141-0.099s0.085-0.092 0.099-0.099c0.18-0.118 0.33-0.16 0.448-0.124 0.153 0.042 0.177 0.097 0.073 0.167-0.014 0.014-0.050 0.019-0.109 0.016s-0.099-0.002-0.12 0.005c0.063 0.014 0.115 0.033 0.157 0.057s0.052 0.057 0.031 0.099c0.111 0.063 0.132 0.132 0.063 0.208-0.090 0.090-0.198 0.128-0.323 0.115 0.021 0 0.021 0.014 0 0.042l-0.177 0.115c-0.014 0.007-0.059 0.024-0.135 0.052s-0.129 0.059-0.156 0.094c-0.021 0.028-0.031 0.069-0.031 0.125s-0.004 0.097-0.010 0.125c-0.007 0.028-0.035 0.035-0.083 0.021-0.021 0.042-0.085 0.075-0.193 0.099s-0.179 0.061-0.214 0.109c0.041 0.056 0.038 0.111-0.011 0.167-0.083 0.070-0.156 0.063-0.219-0.021-0.035 0.014-0.061 0.049-0.078 0.104s-0.043 0.094-0.078 0.115c0.049 0.076 0.041 0.132-0.021 0.167 0.007 0 0.022 0.007 0.047 0.021s0.050 0.031 0.078 0.052c0.028 0.021 0.045 0.031 0.052 0.031-0.028 0.062-0.066 0.094-0.115 0.094 0.042 0.111-0.010 0.233-0.156 0.365-0.028 0.028-0.071 0.055-0.13 0.083s-0.113 0.050-0.162 0.068-0.076 0.030-0.083 0.036c-0.069 0.063-0.122 0.127-0.156 0.193s-0.040 0.13-0.016 0.193c0.024 0.063 0.089 0.104 0.193 0.125l0.010 0.083v0.187l0.010 0.083c0.007 0.049 0.012 0.092 0.016 0.13s0.003 0.087 0 0.146c-0.003 0.059-0.019 0.092-0.047 0.099s-0.066 0-0.115-0.021c-0.056-0.028-0.122-0.181-0.198-0.458-0.014-0.069-0.056-0.153-0.125-0.25-0.035 0.035-0.064 0.057-0.088 0.068s-0.042 0.012-0.052 0.005c-0.010-0.007-0.030-0.023-0.057-0.047s-0.052-0.043-0.073-0.057c-0.035-0.021-0.095-0.038-0.182-0.052s-0.141-0.031-0.161-0.052c-0.167 0.125-0.268 0.094-0.302-0.094-0.014 0.035-0.012 0.081 0.005 0.141s0.026 0.092 0.026 0.099c-0.049 0.090-0.125 0.097-0.229 0.021-0.042-0.041-0.137-0.047-0.287-0.015s-0.248 0.036-0.297 0.015c0.007 0 0.021 0.010 0.042 0.031 0.021 0.014 0.035 0.024 0.042 0.031-0.007 0.028-0.017 0.049-0.031 0.062s-0.028 0.019-0.042 0.016c-0.014-0.004-0.030-0.004-0.047 0s-0.033 0.008-0.047 0.015c-0.028 0.021-0.062 0.057-0.104 0.109s-0.073 0.085-0.094 0.099c0.042 0.111 0.061 0.196 0.057 0.255s-0.014 0.146-0.031 0.26-0.026 0.207-0.026 0.276c0 0.111 0.033 0.24 0.099 0.385s0.144 0.246 0.234 0.302c0.049 0.028 0.132 0.045 0.25 0.052s0.201 0 0.25-0.021c0.042-0.021 0.073-0.045 0.094-0.073s0.038-0.068 0.052-0.12c0.014-0.052 0.024-0.088 0.031-0.109 0.049-0.132 0.139-0.202 0.271-0.209 0.084-0.007 0.144 0.002 0.183 0.026s0.054 0.057 0.047 0.099c-0.007 0.042-0.021 0.085-0.041 0.13s-0.047 0.095-0.078 0.151c-0.031 0.056-0.050 0.097-0.057 0.125-0.014 0.056-0.026 0.134-0.036 0.234s-0.019 0.161-0.026 0.182c0.014 0.007 0.066 0.010 0.156 0.010 0-0.014 0.005-0.036 0.016-0.068s0.015-0.050 0.015-0.057c0.035 0.056 0.090 0.087 0.167 0.094s0.132-0.021 0.167-0.083c0.014 0.021 0.056 0.073 0.125 0.156s0.108 0.153 0.115 0.208c0.007 0.028 0.021 0.073 0.041 0.136s0.028 0.106 0.021 0.13c-0.007 0.024-0.042 0.036-0.104 0.036-0.028 0-0.045 0.010-0.052 0.031s-0.007 0.047 0 0.078c0.007 0.031 0.016 0.061 0.026 0.089s0.024 0.057 0.041 0.089c0.018 0.031 0.026 0.050 0.026 0.057 0.125 0.229 0.295 0.292 0.51 0.188 0 0.201-0.049 0.312-0.146 0.333-0.055 0.014-0.117-0.021-0.187-0.104zM9.156 14.563c-0.014-0.069-0.021-0.125-0.020-0.166-0.007-0.056 0.017-0.13 0.073-0.224s0.083-0.165 0.083-0.214c-0.111-0.028-0.153-0.118-0.125-0.271 0.014-0.104 0.115-0.243 0.302-0.417 0.132-0.118 0.174-0.285 0.125-0.5-0.021-0.090-0.038-0.222-0.052-0.396s-0.028-0.295-0.042-0.365c0 0.021 0.033 0.040 0.099 0.057s0.106 0.040 0.12 0.067c0.014-0.021 0.031-0.059 0.052-0.114s0.042-0.097 0.062-0.125c0.014-0.021 0.043-0.047 0.089-0.078s0.075-0.050 0.089-0.057c0.014-0.007 0.045-0.029 0.094-0.068s0.089-0.068 0.12-0.088c0.031-0.021 0.073-0.036 0.125-0.047s0.089 0.005 0.109 0.047c0.035 0.042 0.028 0.106-0.021 0.193s-0.049 0.148 0 0.183c0.007-0.021 0.014-0.066 0.021-0.136s0.028-0.121 0.063-0.156c0.042-0.041 0.082-0.066 0.12-0.073s0.073-0.002 0.104 0.016c0.031 0.017 0.068 0.041 0.109 0.073s0.080 0.050 0.115 0.057c0.104 0.035 0.229 0.111 0.375 0.229-0.007-0.007-0.007-0.016 0-0.026s0.021-0.021 0.042-0.031c0.021-0.010 0.040-0.021 0.057-0.031s0.036-0.019 0.057-0.026l0.031-0.010c0.048 0 0.083-0.003 0.104-0.011s0.051 0 0.089 0.021c0.038 0.021 0.064 0.036 0.078 0.047s0.038 0.029 0.073 0.057c0.035 0.028 0.059 0.049 0.073 0.062 0.021 0.014 0.059 0.038 0.115 0.073s0.099 0.062 0.13 0.083c0.031 0.021 0.059 0.052 0.083 0.094s0.033 0.087 0.026 0.136c0.042 0.007 0.125 0.035 0.25 0.083 0.021 0.014 0.064 0.026 0.13 0.036s0.109 0.026 0.13 0.047c-1.006 1.063-2.225 1.719-3.656 1.969z"></path>
</svg>
